<svg id="bg" xmlns="http://www.w3.org/2000/svg" width="1920" height="1000" viewBox="0 0 1920 1000">
  <defs>
    <style>
      .cls-1 {
        fill: #06101a;
      }

      .cls-2, .cls-5 {
        fill: none;
      }

      .cls-2 {
        stroke: #00bcd4;
        stroke-width: 3px;
      }

      .cls-2, .cls-3, .cls-4, .cls-5 {
        fill-rule: evenodd;
      }

      .cls-3 {
        fill: #fff;
      }

      .cls-4 {
        fill: #00bcd4;
      }

      .cls-5 {
        stroke: #fff;
        stroke-width: 1px;
      }
    </style>
  </defs>
  <g id="bg-2" data-name="bg">
    <rect id="bg-3" data-name="bg" class="cls-1" width="1920" height="1000"/>
  </g>
  <g id="design">
    <path id="Polygon_3" data-name="Polygon 3" class="cls-2" d="M1777,516.028l-39.6,10.608-28.98-28.984,10.61-39.594,39.59-10.61,28.99,28.985Z"/>
    <path id="Polygon_3_copy" data-name="Polygon 3 copy" class="cls-2" d="M276.006,608.5L263.5,630h-25L226,608.5,238.5,587h25Z"/>
    <path class="cls-3" d="M172.083,178.934l-18.827,2.232-2.233,18.827L132.2,202.227l-2.234,18.828-18.813,2.23-1.355,17.653-0.78-.06,1.4-18.294,18.84-2.234,2.233-18.828,18.828-2.233,2.233-18.827,18.827-2.232,2.233-18.828,18.827-2.233,2.234-18.828,18.828-2.234,2.235-18.829,19.136-2.271,0.092,0.776-18.524,2.2-2.235,18.83-18.828,2.234-2.233,18.828-18.828,2.233Zm16,16-18.826,2.232-2.233,18.828L148.2,218.227l-2.233,18.828-18.814,2.231L125.8,256.939l-0.78-.06,1.4-18.294,18.84-2.234,2.233-18.828,18.828-2.233,2.233-18.828,18.826-2.232,2.233-18.827,18.828-2.234,2.234-18.828,18.828-2.233,2.235-18.83,19.135-2.271,0.093,0.776-18.524,2.2-2.235,18.83-18.828,2.233-2.234,18.829-18.827,2.233Zm-32-32-18.826,2.232-2.233,18.828L116.2,186.226l-2.233,18.828-18.814,2.23-1.354,17.654-0.78-.061,1.4-18.293,18.84-2.234,2.234-18.828,18.828-2.234,2.233-18.827,18.826-2.232,2.233-18.828,18.828-2.233,2.234-18.828,18.828-2.234,2.235-18.829,19.135-2.271,0.092,0.777-18.523,2.2-2.235,18.83-18.828,2.232-2.234,18.829-18.828,2.234Z"/>
    <path id="Shape_2_copy" data-name="Shape 2 copy" class="cls-3" d="M1241.66,434.126l-8.36-6.675-8.37,6.675-8.37-6.675-8.36,6.675-8.36-6.671-7.55,6.558-0.29-.339,7.82-6.795,8.38,6.681,8.36-6.676,8.37,6.676,8.37-6.676,8.36,6.676,8.37-6.676,8.36,6.676,8.37-6.676,8.37,6.676,8.37-6.676,8.5,6.784-0.27.35-8.23-6.567-8.37,6.675-8.37-6.675-8.37,6.675-8.36-6.675Zm0,12.875-8.36-6.676L1224.93,447l-8.37-6.676L1208.2,447l-8.36-6.671-7.55,6.557-0.29-.338,7.82-6.795,8.38,6.681,8.36-6.677,8.37,6.677,8.37-6.677,8.36,6.677,8.37-6.677,8.36,6.677,8.37-6.677,8.37,6.677,8.37-6.677,8.5,6.785-0.27.35-8.23-6.568L1275.13,447l-8.37-6.676L1258.39,447l-8.36-6.676Zm0-25.749-8.36-6.677-8.37,6.677-8.37-6.677-8.36,6.677-8.36-6.672-7.55,6.558L1192,420.8l7.82-6.8,8.38,6.681,8.36-6.677,8.37,6.677,8.37-6.677,8.36,6.677,8.37-6.677,8.36,6.677,8.37-6.677,8.37,6.677,8.37-6.677,8.5,6.785-0.27.35-8.23-6.569-8.37,6.677-8.37-6.677-8.37,6.677-8.36-6.677Z"/>
    <path class="cls-4" d="M1906.32,17.312a3.657,3.657,0,1,1,3.67-3.657A3.668,3.668,0,0,1,1906.32,17.312Zm0,27.537a3.657,3.657,0,1,1,3.67-3.657A3.668,3.668,0,0,1,1906.32,44.849Zm0,27.536a3.657,3.657,0,1,1,3.67-3.656A3.668,3.668,0,0,1,1906.32,72.385Zm0,27.537a3.657,3.657,0,1,1,3.67-3.656A3.668,3.668,0,0,1,1906.32,99.922Zm0,27.537a3.657,3.657,0,1,1,3.67-3.656A3.668,3.668,0,0,1,1906.32,127.459Zm0,27.537a3.657,3.657,0,1,1,3.67-3.656A3.668,3.668,0,0,1,1906.32,155ZM1864.99,17.312a3.657,3.657,0,1,1,3.67-3.657A3.662,3.662,0,0,1,1864.99,17.312Zm0,27.537a3.657,3.657,0,1,1,3.67-3.657A3.662,3.662,0,0,1,1864.99,44.849Zm0,27.536a3.657,3.657,0,1,1,3.67-3.656A3.661,3.661,0,0,1,1864.99,72.385Zm0,27.537a3.657,3.657,0,1,1,3.67-3.656A3.661,3.661,0,0,1,1864.99,99.922Zm0,27.537a3.657,3.657,0,1,1,3.67-3.656A3.661,3.661,0,0,1,1864.99,127.459Zm0,27.537a3.657,3.657,0,1,1,3.67-3.656A3.661,3.661,0,0,1,1864.99,155ZM1823.66,17.312a3.657,3.657,0,1,1,3.66-3.657A3.662,3.662,0,0,1,1823.66,17.312Zm0,27.537a3.657,3.657,0,1,1,3.66-3.657A3.662,3.662,0,0,1,1823.66,44.849Zm0,27.536a3.657,3.657,0,1,1,3.66-3.656A3.661,3.661,0,0,1,1823.66,72.385Zm0,27.537a3.657,3.657,0,1,1,3.66-3.656A3.661,3.661,0,0,1,1823.66,99.922Zm0,27.537a3.657,3.657,0,1,1,3.66-3.656A3.661,3.661,0,0,1,1823.66,127.459Zm0,27.537a3.657,3.657,0,1,1,3.66-3.656A3.661,3.661,0,0,1,1823.66,155Z"/>
    <path id="Shape_3_copy" data-name="Shape 3 copy" class="cls-4" d="M13.68,982.687a3.657,3.657,0,1,1-3.666,3.656A3.661,3.661,0,0,1,13.68,982.687Zm0-27.538a3.657,3.657,0,1,1-3.666,3.657A3.662,3.662,0,0,1,13.68,955.149Zm0-27.537a3.657,3.657,0,1,1-3.666,3.658A3.662,3.662,0,0,1,13.68,927.612Zm0-27.536a3.657,3.657,0,1,1-3.666,3.657A3.662,3.662,0,0,1,13.68,900.076Zm0-27.537a3.657,3.657,0,1,1-3.666,3.657A3.661,3.661,0,0,1,13.68,872.539Zm0-27.536a3.657,3.657,0,1,1-3.666,3.656A3.661,3.661,0,0,1,13.68,845ZM55.01,982.687a3.657,3.657,0,1,1-3.666,3.656A3.661,3.661,0,0,1,55.01,982.687Zm0-27.538a3.657,3.657,0,1,1-3.666,3.657A3.662,3.662,0,0,1,55.01,955.149Zm0-27.537a3.657,3.657,0,1,1-3.666,3.658A3.662,3.662,0,0,1,55.01,927.612Zm0-27.536a3.657,3.657,0,1,1-3.666,3.657A3.662,3.662,0,0,1,55.01,900.076Zm0-27.537a3.657,3.657,0,1,1-3.666,3.657A3.661,3.661,0,0,1,55.01,872.539Zm0-27.536a3.657,3.657,0,1,1-3.666,3.656A3.661,3.661,0,0,1,55.01,845Zm41.33,137.684a3.657,3.657,0,1,1-3.666,3.656A3.66,3.66,0,0,1,96.341,982.687Zm0-27.538a3.657,3.657,0,1,1-3.666,3.657A3.661,3.661,0,0,1,96.341,955.149Zm0-27.537a3.657,3.657,0,1,1-3.666,3.658A3.662,3.662,0,0,1,96.341,927.612Zm0-27.536a3.657,3.657,0,1,1-3.666,3.657A3.661,3.661,0,0,1,96.341,900.076Zm0-27.537a3.657,3.657,0,1,1-3.666,3.657A3.661,3.661,0,0,1,96.341,872.539Zm0-27.536a3.657,3.657,0,1,1-3.666,3.656A3.66,3.66,0,0,1,96.341,845Z"/>
    <path id="Polygon_1" data-name="Polygon 1" class="cls-5" d="M853.721,317.279l-63.05-16.894,16.894-63.05,63.051,16.894Z"/>
    <path id="Polygon_1_copy" data-name="Polygon 1 copy" class="cls-5" d="M809.447,695l-8.454-31.55L832.543,655,841,686.548Z"/>
  </g>
</svg>
